<?xml version="1.0" standalone="no"?>
<!DOCTYPE svg PUBLIC "-//W3C//DTD SVG 20010904//EN"
 "http://www.w3.org/TR/2001/REC-SVG-20010904/DTD/svg10.dtd">
<svg version="1.0" xmlns="http://www.w3.org/2000/svg"
 width="1000.000000pt" height="1000.000000pt" viewBox="0 0 1000.000000 1000.000000"
 preserveAspectRatio="xMidYMid meet">
<metadata>
Created by potrace 1.14, written by Peter Selinger 2001-2017
</metadata>
<g transform="translate(0.000000,1000.000000) scale(0.100000,-0.100000)"
fill="#000000" stroke="none">
<path d="M4645 7438 c-168 -18 -332 -134 -410 -288 -74 -146 -73 -331 2 -488
37 -77 150 -190 230 -231 219 -110 470 -67 635 108 103 108 148 220 148 366 0
329 -274 571 -605 533z m236 -175 c349 -172 280 -673 -103 -744 -167 -31 -336
58 -415 219 -36 71 -38 82 -38 166 1 116 26 184 97 261 91 100 176 136 309
132 73 -3 96 -8 150 -34z"/>
<path d="M2833 6590 c-44 -18 -57 -84 -23 -115 12 -11 92 -34 212 -61 106 -24
204 -46 217 -49 22 -6 20 -9 -36 -68 -222 -231 -440 -658 -483 -942 -47 -309
109 -567 387 -640 76 -20 231 -20 308 0 205 53 371 209 438 413 84 254 33 754
-108 1060 -28 59 -31 72 -17 68 9 -3 150 -35 312 -71 162 -36 303 -69 313 -73
16 -6 11 -13 -28 -42 -94 -71 -163 -191 -185 -321 -6 -39 -10 -310 -10 -699
l0 -635 -118 -412 -118 -413 -209 -220 c-241 -252 -274 -301 -282 -417 -6 -76
13 -163 49 -220 l20 -33 -462 0 -461 0 -24 -25 c-29 -28 -32 -64 -7 -94 l17
-22 2465 0 2465 0 18 22 c24 30 21 66 -8 94 l-24 25 -676 0 -676 0 20 26 c36
46 61 129 61 207 0 64 -14 117 -125 475 l-125 403 -278 437 c-153 240 -282
444 -287 452 -14 23 -92 615 -82 619 5 2 88 -9 184 -25 160 -26 177 -27 201
-13 15 8 137 102 272 209 135 106 250 196 255 200 6 4 75 -8 155 -26 175 -41
213 -42 234 -12 22 31 20 71 -4 93 -11 10 -75 30 -147 47 -70 16 -129 31 -131
33 -2 2 1 20 8 40 18 55 9 171 -18 227 -68 138 -224 212 -371 174 -73 -19 -78
-22 -250 -153 -73 -57 -141 -103 -150 -103 -9 0 -93 18 -186 39 -204 48 -523
116 -585 126 -25 4 -331 71 -680 150 -349 79 -759 171 -910 205 -151 34 -282
63 -290 65 -8 2 -25 0 -37 -5z m691 -313 c62 -66 125 -213 171 -397 70 -277
74 -593 10 -745 -31 -72 -101 -159 -164 -204 -98 -68 -157 -86 -286 -86 -99 0
-116 3 -168 27 -159 74 -229 191 -228 378 1 152 58 335 173 550 144 272 348
510 435 510 16 0 38 -13 57 -33z m2543 -158 c61 -23 113 -99 113 -166 -1 -85
-19 -105 -301 -328 l-264 -208 -205 32 c-113 17 -216 32 -229 31 -37 0 -61
-28 -61 -69 0 -20 23 -197 50 -394 l49 -358 287 -450 c157 -247 292 -466 300
-487 52 -138 234 -756 234 -793 -1 -90 -75 -186 -162 -210 -97 -26 -206 15
-252 94 -16 27 -58 171 -115 394 l-90 352 -254 323 c-173 221 -262 326 -280
332 -58 21 -69 1 -216 -390 l-136 -360 -310 -357 c-260 -300 -318 -361 -359
-382 -151 -76 -319 29 -321 200 0 47 6 69 25 102 14 23 116 136 227 252 111
115 208 220 216 233 8 13 71 217 138 453 l124 430 5 690 5 690 28 57 c36 73
119 149 195 179 44 18 77 23 142 23 93 0 159 -13 588 -110 155 -35 295 -64
311 -64 22 0 68 30 183 119 85 65 167 125 183 134 35 19 111 22 152 6z m-987
-2359 c101 -129 189 -242 197 -251 7 -9 52 -169 99 -355 81 -319 106 -395 142
-436 14 -17 -21 -18 -716 -18 -403 0 -732 2 -732 5 0 3 134 158 297 346 l296
342 109 291 c60 160 111 297 114 305 2 8 6 12 8 10 1 -2 85 -110 186 -239z"/>
<path d="M226 2301 c-3 -4 -17 -6 -30 -4 -20 4 -26 0 -31 -20 -7 -26 0 -47 14
-47 5 0 6 11 3 25 -3 18 0 25 12 25 9 0 16 -7 16 -15 0 -22 17 -18 23 6 8 29
32 18 32 -14 -1 -30 12 -36 22 -11 14 37 -41 87 -61 55z"/>
<path d="M188 2203 c-19 -5 -34 -45 -23 -62 11 -18 22 -12 21 12 -1 32 34 34
64 2 32 -34 40 -32 40 15 0 44 -20 56 -21 13 0 -16 -3 -22 -6 -15 -7 17 -54
39 -75 35z"/>
<path d="M222 2098 c-5 -7 -12 -22 -14 -33 -4 -18 -6 -17 -18 8 -14 30 -33 38
-23 10 11 -31 46 -63 69 -63 23 0 54 24 54 41 0 39 -46 64 -68 37z m43 -34 c0
-10 -8 -20 -17 -22 -18 -3 -26 27 -11 42 12 11 28 0 28 -20z"/>
<path d="M160 1982 c0 -5 7 -17 15 -28 13 -17 14 -17 15 -1 0 14 9 17 50 17
28 0 50 5 50 10 0 6 -28 10 -65 10 -36 0 -65 -4 -65 -8z"/>
<path d="M160 1912 c0 -5 7 -17 15 -28 13 -17 14 -17 15 -1 0 14 9 17 50 17
28 0 50 5 50 10 0 6 -28 10 -65 10 -36 0 -65 -4 -65 -8z"/>
<path d="M177 1842 c-22 -24 -21 -35 1 -55 25 -22 75 -21 95 1 23 25 21 38 -5
56 -30 21 -71 20 -91 -2z m77 -8 c24 -9 19 -33 -8 -40 -31 -7 -66 3 -66 21 0
21 41 32 74 19z"/>
<path d="M222 1738 c-5 -7 -12 -22 -14 -33 -4 -18 -6 -17 -18 8 -14 30 -33 38
-23 10 11 -31 46 -63 69 -63 23 0 54 24 54 41 0 39 -46 64 -68 37z m43 -34 c0
-10 -8 -20 -17 -22 -18 -3 -26 27 -11 42 12 11 28 0 28 -20z"/>
<path d="M160 1611 c0 -22 5 -43 10 -46 6 -4 10 7 10 25 0 28 2 31 23 24 12
-3 34 -13 49 -20 31 -16 38 -17 38 -5 0 7 -108 61 -124 61 -3 0 -6 -18 -6 -39z"/>
<path d="M270 1523 l0 -27 -20 22 c-29 31 -78 30 -86 -2 -6 -25 1 -46 15 -46
4 0 7 10 7 23 -1 32 34 34 64 2 32 -34 40 -32 40 15 0 22 -4 40 -10 40 -5 0
-10 -12 -10 -27z"/>
<path d="M196 1451 c-4 -6 -12 -9 -17 -6 -5 4 -9 2 -9 -4 0 -5 6 -12 13 -15 9
-5 9 -7 0 -12 -10 -4 -9 -9 2 -20 8 -9 20 -12 26 -8 6 3 14 1 18 -5 5 -8 15
-9 31 -3 19 7 21 10 7 15 -23 9 -22 28 1 20 12 -4 11 0 -7 17 -17 17 -25 20
-31 10 -6 -9 -10 -8 -17 5 -7 12 -12 14 -17 6z m39 -41 c-3 -5 -10 -10 -16
-10 -5 0 -9 5 -9 10 0 6 7 10 16 10 8 0 12 -4 9 -10z"/>
<path d="M140 1280 c0 -6 38 -10 95 -10 57 0 95 4 95 10 0 6 -38 10 -95 10
-57 0 -95 -4 -95 -10z"/>
<path d="M261 1189 c-22 -18 -25 -19 -42 -3 -11 10 -22 14 -27 10 -4 -4 4 -16
17 -27 l23 -19 -46 0 c-34 0 -46 -4 -46 -15 0 -12 15 -15 75 -15 60 0 75 3 75
15 0 9 -9 15 -22 15 l-23 0 24 19 c13 10 22 23 20 29 -2 6 -14 3 -28 -9z"/>
<path d="M190 1081 c0 -27 27 -51 55 -51 24 0 45 25 45 54 0 25 -18 19 -22 -6
-2 -17 -10 -23 -28 -23 -18 0 -26 6 -28 23 -4 27 -22 30 -22 3z"/>
<path d="M206 994 c-19 -18 -20 -28 -6 -55 21 -39 90 -16 90 30 0 16 -30 41
-50 41 -10 0 -26 -7 -34 -16z m59 -29 c0 -22 -31 -33 -47 -17 -17 17 -1 44 24
40 15 -2 23 -10 23 -23z"/>
<path d="M190 900 c0 -5 -7 -10 -15 -10 -8 0 -15 -4 -15 -10 0 -5 6 -10 14
-10 8 0 17 -6 20 -12 5 -10 7 -10 12 0 3 6 21 12 40 12 34 0 56 22 39 38 -4 4
-10 1 -12 -5 -5 -15 -63 -18 -63 -3 0 6 -4 10 -10 10 -5 0 -10 -4 -10 -10z"/>
<path d="M212 810 c-19 -34 -35 -34 -40 -2 -5 30 -22 28 -22 -2 0 -50 54 -61
77 -16 17 34 38 32 38 -3 -1 -32 18 -31 23 2 8 53 -49 69 -76 21z"/>
<path d="M200 675 c-22 -26 3 -65 40 -65 35 0 58 36 45 67 -7 16 -9 15 -13 -7
-6 -40 -22 -48 -22 -12 0 25 -4 32 -19 32 -10 0 -24 -7 -31 -15z m30 -26 c0
-11 -4 -17 -10 -14 -5 3 -10 13 -10 21 0 8 5 14 10 14 6 0 10 -9 10 -21z"/>
<path d="M197 561 c-8 -22 -18 -31 -34 -31 -14 0 -23 -6 -23 -15 0 -23 138
-22 147 2 10 26 -19 68 -50 71 -24 3 -30 -2 -40 -27z m57 3 c28 -11 18 -34
-14 -34 -18 0 -30 5 -30 13 0 25 15 32 44 21z"/>
<path d="M206 464 c-19 -18 -20 -28 -6 -55 21 -39 90 -16 90 30 0 16 -30 41
-50 41 -10 0 -26 -7 -34 -16z m59 -29 c0 -22 -31 -33 -47 -17 -17 17 -1 44 24
40 15 -2 23 -10 23 -23z"/>
<path d="M140 350 c0 -5 11 -10 25 -10 15 0 25 -6 25 -14 0 -45 73 -62 92 -22
20 45 6 56 -72 56 -40 0 -70 -4 -70 -10z m128 -27 c-2 -12 -12 -18 -28 -18
-16 0 -26 6 -28 18 -3 13 3 17 28 17 25 0 31 -4 28 -17z"/>
<path d="M220 246 c-36 -13 -66 -29 -68 -37 -1 -9 20 -21 68 -35 38 -12 70
-17 70 -12 0 6 -9 12 -20 15 -14 4 -20 14 -20 34 0 22 5 29 20 29 11 0 20 7
20 15 0 8 -1 15 -2 14 -2 0 -32 -11 -68 -23z m8 -51 c-7 -7 -48 7 -48 15 0 15
45 16 48 2 2 -8 2 -15 0 -17z"/>
</g>
</svg>
